<?xml version="1.0" encoding="utf-8"?>
<!-- Generator: Adobe Illustrator 24.2.1, SVG Export Plug-In . SVG Version: 6.00 Build 0)  -->
<svg version="1.1" id="Layer_1" xmlns="http://www.w3.org/2000/svg" xmlns:xlink="http://www.w3.org/1999/xlink" x="0px" y="0px"
	 viewBox="0 0 24 24" style="enable-background:new 0 0 24 24;" xml:space="preserve">
<style type="text/css">
	.st0{fill:none;}
	.st1{fill:#CDCDCD;}
</style>
<desc>Created with Sketch.</desc>
<g id="Ellipse_5">
	<circle class="st0" cx="12" cy="12" r="12"/>
	<g>
		<path class="st1" d="M12,24C5.4,24,0,18.6,0,12C0,5.4,5.4,0,12,0c6.6,0,12,5.4,12,12C24,18.6,18.6,24,12,24z M12,2
			C6.5,2,2,6.5,2,12c0,5.5,4.5,10,10,10c5.5,0,10-4.5,10-10C22,6.5,17.5,2,12,2z"/>
	</g>
</g>
<g id="Path_16669">
	<rect x="0.7" y="11" transform="matrix(0.7071 -0.7071 0.7071 0.7071 -4.9706 12)" class="st1" width="22.6" height="2"/>
</g>
</svg>
