<?xml version="1.0" encoding="utf-8"?>
<!-- Generator: Adobe Illustrator 24.2.1, SVG Export Plug-In . SVG Version: 6.00 Build 0)  -->
<svg version="1.1" id="Layer_1" xmlns="http://www.w3.org/2000/svg" xmlns:xlink="http://www.w3.org/1999/xlink" x="0px" y="0px"
	 viewBox="0 0 24 24" style="enable-background:new 0 0 24 24;" xml:space="preserve">
<style type="text/css">
	.st0{fill:#FFFFFF;}
	.st1{fill:#0000F1;}
</style>
<circle class="st0" cx="12" cy="12" r="12"/>
<desc>Created with Sketch.</desc>
<g id="icon_status_multi-state" transform="translate(0.5 0.5)">
	<path id="Fill_3" class="st1" d="M11.5,23.5c-6.6,0-12-5.4-12-12s5.4-12,12-12s12,5.4,12,12S18.1,23.5,11.5,23.5z M11.5,11.2
		L11.5,11.2l9.4,5.6c1-1.7,1.6-3.6,1.6-5.6c-0.1-6-5-10.8-11-10.8c-6-0.1-11,4.7-11,10.8c0,2,0.6,3.9,1.6,5.6L11.5,11.2L11.5,11.2z"
		/>
</g>
</svg>
